<?xml version="1.0" encoding="utf-8"?>
<!-- Generator: Adobe Illustrator 16.0.0, SVG Export Plug-In . SVG Version: 6.00 Build 0)  -->
<!DOCTYPE svg PUBLIC "-//W3C//DTD SVG 1.1//EN" "http://www.w3.org/Graphics/SVG/1.1/DTD/svg11.dtd">
<svg version="1.1" id="Layer_1" xmlns="http://www.w3.org/2000/svg" xmlns:xlink="http://www.w3.org/1999/xlink" x="0px" y="0px"
	 width="866px" height="71.368px" viewBox="0 0 866 71.368" enable-background="new 0 0 866 71.368" xml:space="preserve">
<g opacity="0.05">
	<path d="M576.38,37.563c0,19.859-14.018,33.805-33.493,33.805c-19.494,0-33.633-13.945-33.633-33.805
		C509.254,18.994,525.341,6,542.887,6C560.265,6,576.38,18.994,576.38,37.563z M525.785,37.659c0,10.532,7.677,18.26,17.102,18.26
		c9.394,0,17.106-7.728,17.106-18.26c0-8.476-7.716-16.209-17.106-16.209C533.462,21.448,525.785,29.183,525.785,37.659z
		 M67.936,67.131l-21.228-56.89c-0.443-1.227-1.855-2.192-3.124-2.192H30.976c-1.281,0-2.681,0.965-3.156,2.192L6.146,67.15
		c-0.464,1.206,0.224,2.238,1.488,2.238h12.107c1.282,0,2.713-1.026,3.178-2.181l3.332-8.492h21.724l3.131,8.416
		c0.433,1.213,1.862,2.257,3.138,2.257h12.169C67.683,69.388,68.382,68.356,67.936,67.131z M30.595,46.481l6.511-19.49h0.19
		l6.419,19.49H30.595z M231.831,67.131L210.602,10.24c-0.472-1.227-1.89-2.192-3.156-2.192h-12.604
		c-1.244,0-2.688,0.965-3.158,2.192l-21.677,56.91c-0.442,1.206,0.251,2.238,1.52,2.238h12.097c1.265,0,2.688-1.026,3.194-2.181
		l3.284-8.492h21.735l3.161,8.416c0.436,1.213,1.826,2.257,3.083,2.257h12.233C231.576,69.388,232.271,68.356,231.831,67.131
		L231.831,67.131z M194.488,46.481L201,26.991h0.158l6.447,19.49H194.488z M788.267,67.131L767.074,10.24
		c-0.503-1.227-1.899-2.199-3.178-2.199H751.28c-1.206,0-2.65,0.965-3.156,2.181L726.49,67.15c-0.52,1.206,0.17,2.238,1.511,2.238
		h12.079c1.241,0,2.676-1.026,3.214-2.181l3.334-8.492h21.641l3.188,8.41c0.387,1.219,1.817,2.263,3.029,2.263h12.292
		C787.984,69.388,788.687,68.344,788.267,67.131L788.267,67.131z M750.96,46.481l6.427-19.49h0.155l6.476,19.49H750.96
		L750.96,46.481z M333.076,67.038l-8.493-56.708c-0.192-1.266-1.368-2.281-2.621-2.281h-11.083c-1.273,0-2.733,0.947-3.211,2.164
		l-12.024,30.584l-11.656-30.556c-0.445-1.227-1.827-2.192-3.1-2.192h-10.932c-1.289,0-2.448,1.015-2.676,2.281l-9.515,56.708
		c-0.226,1.272,0.622,2.354,1.894,2.354h11.075c1.25,0,2.464-1.078,2.625-2.362l4.882-32.996h0.153l12.985,33.178
		c0.446,1.152,1.856,2.182,3.131,2.182h1.663c1.271,0,2.683-1.025,3.19-2.161l13.807-33.197h0.13l4.056,32.997
		c0.141,1.283,1.318,2.361,2.584,2.361h11.15C332.347,69.388,333.238,68.31,333.076,67.038L333.076,67.038z M483.982,67.038
		l-8.434-56.708c-0.283-1.266-1.418-2.281-2.771-2.281h-11.056c-1.21,0-2.682,0.947-3.08,2.164l-12.177,30.584l-11.515-30.556
		c-0.511-1.227-1.906-2.192-3.186-2.192h-10.891c-1.245,0-2.457,1.015-2.713,2.281l-9.489,56.708
		c-0.246,1.272,0.612,2.354,1.889,2.354h11.07c1.253,0,2.466-1.078,2.664-2.362l4.844-32.996h0.128l12.929,33.178
		c0.541,1.152,2.011,2.182,3.225,2.182h1.646c1.354,0,2.691-1.025,3.228-2.161l13.771-33.197h0.127l4.082,32.997
		c0.128,1.283,1.378,2.361,2.576,2.361h11.147C483.336,69.388,484.201,68.31,483.982,67.038L483.982,67.038z M639.349,8.042h-37.15
		c-1.333,0-2.337,1.021-2.337,2.312v8.867c0,1.276,1.004,2.298,2.337,2.298h10.661v45.497c0,1.281,1.084,2.372,2.328,2.372h11.141
		c1.354,0,2.359-1.091,2.359-2.372V21.519h10.661c1.314,0,2.298-1.021,2.298-2.298v-8.867
		C641.646,9.064,640.663,8.042,639.349,8.042z M705.83,8.042h-37.26c-1.326,0-2.349,1.021-2.349,2.312v8.867
		c0,1.276,1.021,2.298,2.349,2.298h10.646v45.497c0,1.281,1.17,2.372,2.334,2.372h11.163c1.334,0,2.334-1.091,2.334-2.372V21.519
		h10.782c1.203,0,2.212-1.021,2.212-2.298v-8.867C708.041,9.064,707.033,8.042,705.83,8.042L705.83,8.042z M863.661,8.049h-11.135
		c-1.214,0-2.214,1.022-2.214,2.305v29.967c0,7.938-0.604,16.684-10.78,16.684c-10.144,0-10.753-8.746-10.753-16.684V10.354
		c0-1.283-0.993-2.305-2.187-2.305H815.31c-1.206,0-2.206,1.022-2.206,2.305v32.159c0,7.862,0.257,15.718,6.264,21.61
		c5.102,5.051,13.087,6.821,20.165,6.821c7.052,0,15.102-1.771,20.149-6.821c6.05-5.895,6.315-13.748,6.315-21.61V10.354
		C866,9.071,864.995,8.049,863.661,8.049z M117.66,8.049H97.607c-1.267,0-2.344,1.022-2.344,2.305v56.662
		c0,1.281,1.078,2.372,2.344,2.372h20.055c16.792,0,30.804-13.47,30.804-30.705C148.463,21.448,134.57,8.049,117.66,8.049z
		 M114.604,55.844h-3.578V21.519h3.733c10.149,0,17.307,6.22,17.307,17.164C132.065,50.655,124.015,55.844,114.604,55.844z"/>
</g>
<g>
	<path fill="#F7F7F7" d="M570.38,31.563c0,19.859-14.018,33.805-33.493,33.805c-19.494,0-33.633-13.945-33.633-33.805
		C503.254,12.994,519.341,0,536.887,0C554.265,0,570.38,12.994,570.38,31.563z M519.785,31.659c0,10.532,7.677,18.259,17.102,18.259
		c9.394,0,17.106-7.729,17.106-18.259c0-8.476-7.716-16.21-17.106-16.21C527.462,15.448,519.785,23.183,519.785,31.659z
		 M61.936,61.131L40.708,4.241c-0.443-1.227-1.855-2.192-3.124-2.192H24.976c-1.281,0-2.681,0.965-3.156,2.192L0.146,61.15
		c-0.464,1.206,0.224,2.238,1.488,2.238h12.107c1.282,0,2.713-1.026,3.178-2.181l3.332-8.492h21.724l3.131,8.416
		c0.433,1.213,1.862,2.257,3.138,2.257h12.169C61.683,63.388,62.382,62.356,61.936,61.131z M24.595,40.481l6.511-19.49h0.19
		l6.419,19.49H24.595z M225.831,61.131l-21.229-56.89c-0.472-1.227-1.89-2.192-3.156-2.192h-12.604
		c-1.244,0-2.688,0.965-3.158,2.192L164.007,61.15c-0.442,1.206,0.251,2.238,1.52,2.238h12.097c1.265,0,2.688-1.026,3.194-2.181
		l3.284-8.492h21.735l3.161,8.416c0.436,1.213,1.826,2.257,3.083,2.257h12.233C225.576,63.388,226.271,62.356,225.831,61.131
		L225.831,61.131z M188.488,40.481L195,20.991h0.158l6.447,19.49H188.488z M782.267,61.131l-21.191-56.89
		c-0.503-1.227-1.899-2.199-3.178-2.199H745.28c-1.206,0-2.65,0.965-3.156,2.181L720.49,61.15c-0.52,1.206,0.17,2.238,1.511,2.238
		h12.079c1.241,0,2.676-1.026,3.214-2.181l3.334-8.492h21.641l3.188,8.41c0.387,1.219,1.817,2.263,3.029,2.263h12.292
		C781.984,63.388,782.687,62.344,782.267,61.131L782.267,61.131z M744.96,40.481l6.427-19.49h0.155l6.476,19.49H744.96
		L744.96,40.481z M327.076,61.038L318.583,4.33c-0.192-1.266-1.368-2.281-2.621-2.281h-11.083c-1.273,0-2.733,0.947-3.211,2.164
		l-12.024,30.584L277.988,4.241c-0.445-1.227-1.827-2.192-3.1-2.192h-10.932c-1.289,0-2.448,1.015-2.676,2.281l-9.515,56.708
		c-0.226,1.272,0.622,2.354,1.894,2.354h11.075c1.25,0,2.465-1.078,2.625-2.362l4.883-32.996h0.152l12.985,33.178
		c0.446,1.152,1.856,2.182,3.131,2.182h1.663c1.271,0,2.682-1.025,3.191-2.161l13.806-33.197h0.13l4.056,32.997
		c0.141,1.283,1.318,2.361,2.584,2.361h11.15C326.347,63.388,327.238,62.31,327.076,61.038z M477.982,61.038L469.549,4.33
		c-0.283-1.266-1.418-2.281-2.771-2.281h-11.056c-1.21,0-2.682,0.947-3.08,2.164l-12.177,30.584L428.951,4.241
		c-0.511-1.227-1.906-2.192-3.186-2.192h-10.891c-1.245,0-2.457,1.015-2.713,2.281l-9.489,56.708
		c-0.246,1.272,0.612,2.354,1.889,2.354h11.07c1.253,0,2.466-1.078,2.664-2.362l4.844-32.996h0.128l12.929,33.178
		c0.541,1.152,2.011,2.182,3.225,2.182h1.646c1.354,0,2.691-1.025,3.228-2.161l13.771-33.197h0.127l4.082,32.997
		c0.128,1.283,1.378,2.361,2.576,2.361h11.147C477.336,63.388,478.201,62.31,477.982,61.038L477.982,61.038z M633.349,2.042h-37.15
		c-1.333,0-2.337,1.021-2.337,2.312v8.867c0,1.276,1.004,2.298,2.337,2.298h10.661v45.497c0,1.281,1.084,2.372,2.328,2.372h11.141
		c1.354,0,2.359-1.091,2.359-2.372V15.519h10.661c1.314,0,2.298-1.021,2.298-2.298V4.354C635.646,3.064,634.663,2.042,633.349,2.042
		z M699.83,2.042h-37.26c-1.326,0-2.349,1.021-2.349,2.312v8.867c0,1.276,1.021,2.298,2.349,2.298h10.646v45.497
		c0,1.281,1.17,2.372,2.334,2.372h11.163c1.334,0,2.334-1.091,2.334-2.372V15.519h10.782c1.203,0,2.212-1.021,2.212-2.298V4.354
		C702.041,3.064,701.033,2.042,699.83,2.042L699.83,2.042z M857.661,2.049h-11.135c-1.214,0-2.214,1.022-2.214,2.305v29.967
		c0,7.938-0.604,16.684-10.78,16.684c-10.144,0-10.753-8.746-10.753-16.684V4.354c0-1.283-0.993-2.305-2.187-2.305H809.31
		c-1.206,0-2.206,1.022-2.206,2.305v32.159c0,7.862,0.257,15.718,6.264,21.61c5.102,5.051,13.087,6.821,20.165,6.821
		c7.052,0,15.102-1.771,20.149-6.821c6.05-5.895,6.315-13.748,6.315-21.61V4.354C860,3.071,858.995,2.049,857.661,2.049z
		 M111.66,2.049H91.607c-1.267,0-2.344,1.022-2.344,2.305v56.662c0,1.281,1.078,2.372,2.344,2.372h20.055
		c16.792,0,30.804-13.47,30.804-30.705C142.463,15.448,128.57,2.049,111.66,2.049z M108.604,49.844h-3.578V15.519h3.733
		c10.149,0,17.307,6.22,17.307,17.164C126.065,44.655,118.015,49.844,108.604,49.844z"/>
</g>
</svg>
